<?xml version="1.0" encoding="UTF-8" standalone="no"?>
<!-- Created with Inkscape (http://www.inkscape.org/) -->

<svg
   xmlns:dc="http://purl.org/dc/elements/1.1/"
   xmlns:cc="http://creativecommons.org/ns#"
   xmlns:rdf="http://www.w3.org/1999/02/22-rdf-syntax-ns#"
   xmlns:svg="http://www.w3.org/2000/svg"
   xmlns="http://www.w3.org/2000/svg"
   xmlns:sodipodi="http://sodipodi.sourceforge.net/DTD/sodipodi-0.dtd"
   xmlns:inkscape="http://www.inkscape.org/namespaces/inkscape"
   width="744.09448819"
   height="1052.3622047"
   id="svg2"
   version="1.1"
   inkscape:version="0.48.4 r9939"
   sodipodi:docname="socsnap_logo.svg">
  <title
     id="title3042">SocSnap Logo</title>
  <defs
     id="defs4" />
  <sodipodi:namedview
     id="base"
     pagecolor="#ffffff"
     bordercolor="#666666"
     borderopacity="1.0"
     inkscape:pageopacity="0.0"
     inkscape:pageshadow="2"
     inkscape:zoom="1"
     inkscape:cx="158.4636"
     inkscape:cy="395.05591"
     inkscape:document-units="px"
     inkscape:current-layer="layer1"
     showgrid="true"
     showguides="true"
     inkscape:guide-bbox="true"
     inkscape:window-width="1858"
     inkscape:window-height="1178"
     inkscape:window-x="1334"
     inkscape:window-y="229"
     inkscape:window-maximized="1">
    <inkscape:grid
       type="xygrid"
       id="grid2985" />
    <sodipodi:guide
       orientation="0,1"
       position="160,200"
       id="guide2989" />
    <sodipodi:guide
       orientation="1,0"
       position="100,340"
       id="guide2991" />
    <sodipodi:guide
       orientation="1,0"
       position="500,380"
       id="guide2993" />
    <sodipodi:guide
       orientation="0,1"
       position="-60,600"
       id="guide2995" />
    <sodipodi:guide
       orientation="1,0"
       position="-300,540"
       id="guide3016" />
  </sodipodi:namedview>
  <metadata
     id="metadata7">
    <rdf:RDF>
      <cc:Work
         rdf:about="">
        <dc:format>image/svg+xml</dc:format>
        <dc:type
           rdf:resource="http://purl.org/dc/dcmitype/StillImage" />
        <dc:title>SocSnap Logo</dc:title>
      </cc:Work>
    </rdf:RDF>
  </metadata>
  <g
     inkscape:label="Layer 1"
     inkscape:groupmode="layer"
     id="layer1">
    <path
       style="fill:#ff0000;stroke:none"
       d="m 388,230.375 c -82.84271,0 -150,40.29437 -150,90 0,49.70563 67.15729,90 150,90 4.7215,0 9.38993,-0.15019 14,-0.40625 l 1.53125,4.0625 14.34375,38.28125 -106.875,0 0,-29.9375 -60,0 0,29.9375 -30.0625,0 0,200.09375 320.125,0 0,-200.09375 -109.96875,0 24.375,-29.625 L 482,390.46875 c 34.13528,-16.49691 56,-41.74769 56,-70.09375 0,-49.70563 -67.15729,-90 -150,-90 z m -22.125,43.75 c 13.87581,0 25.125,11.24919 25.125,25.125 0,-13.87581 11.24919,-25.125 25.125,-25.125 13.87581,0 25.125,11.24919 25.125,25.125 0,45.22388 -50.00573,75.3012 -50.25,75.375 -0.24427,-0.0738 -50.25,-30.15112 -50.25,-75.375 0,-13.87581 11.24919,-25.125 25.125,-25.125 z m 12.0625,198.25 c 0.68617,-0.0174 1.37214,0 2.0625,0 44.18278,0 80,35.81722 80,80 0,44.18278 -35.81722,80 -80,80 -44.18278,0 -80,-35.81722 -80,-80 0,-43.49242 34.70901,-78.9048 77.9375,-80 z m 2.0625,20 c -33.13708,0 -60,26.86292 -60,60 0,33.13708 26.86292,60 60,60 33.13708,0 60,-26.86292 60,-60 0,-33.13708 -26.86292,-60 -60,-60 z"
       id="rect2997"
       inkscape:connector-curvature="0" />
    <text
       xml:space="preserve"
       style="font-size:117.44129944px;font-style:normal;font-variant:normal;font-weight:bold;font-stretch:normal;line-height:125%;letter-spacing:0px;word-spacing:0px;fill:#ff0000;fill-opacity:1;stroke:none;font-family:Minion Pro Cond;-inkscape-font-specification:Minion Pro Cond Bold"
       x="190"
       y="772.36218"
       id="text3048"
       sodipodi:linespacing="125%"><tspan
         sodipodi:role="line"
         id="tspan3050"
         x="190"
         y="772.36218">SocSnap</tspan></text>
  </g>
</svg>
