<?xml version="1.0" encoding="UTF-8" standalone="no"?>
<!-- Created with Inkscape (http://www.inkscape.org/) -->

<svg
   xmlns:dc="http://purl.org/dc/elements/1.1/"
   xmlns:cc="http://creativecommons.org/ns#"
   xmlns:rdf="http://www.w3.org/1999/02/22-rdf-syntax-ns#"
   xmlns:svg="http://www.w3.org/2000/svg"
   xmlns="http://www.w3.org/2000/svg"
   version="1.1"
   width="200"
   height="200"
   id="svg3026">
  <defs
     id="defs3028" />
  <metadata
     id="metadata3031">
    <rdf:RDF>
      <cc:Work
         rdf:about="">
        <dc:format>image/svg+xml</dc:format>
        <dc:type
           rdf:resource="http://purl.org/dc/dcmitype/StillImage" />
        <dc:title></dc:title>
      </cc:Work>
    </rdf:RDF>
  </metadata>
  <g
     transform="translate(0,-852.36218)"
     id="layer1">
    <path
       d="m 103.42374,864.2037 c -35.731857,0 -64.698256,17.37984 -64.698256,38.81895 0,21.43912 28.966399,38.81896 64.698256,38.81896 2.03649,0 4.05007,-0.0648 6.0385,-0.17523 l 0.66049,1.75225 6.18675,16.51153 -46.097513,0 0,-12.91269 -25.879301,0 0,12.91269 -12.966609,0 0,86.30474 138.076863,0 0,-86.30474 -47.43189,0 10.51347,-12.7779 11.44348,-13.89665 c 14.7233,-7.11548 24.15402,-18.00669 24.15402,-30.23296 0,-21.43911 -28.96641,-38.81895 -64.69826,-38.81895 z m -9.542994,18.87032 c 5.984933,0 10.836954,4.85202 10.836954,10.83696 0,-5.98494 4.85203,-10.83696 10.83696,-10.83696 5.98494,0 10.83696,4.85202 10.83696,10.83696 0,19.50604 -21.56854,32.47904 -21.67392,32.51088 -0.10537,-0.0318 -21.673912,-13.00484 -21.673912,-32.51088 0,-5.98494 4.852024,-10.83696 10.836958,-10.83696 z m 5.202818,85.50953 c 0.295973,-0.007 0.591859,0 0.889601,0 19.057005,0 34.505735,15.44875 34.505735,34.50575 0,19.057 -15.44873,34.5057 -34.505735,34.5057 -19.057001,0 -34.505737,-15.4487 -34.505737,-34.5057 0,-18.75926 14.970745,-34.03336 33.616136,-34.50575 z m 0.889601,8.62644 c -14.292751,0 -25.879303,11.58656 -25.879303,25.87931 0,14.2927 11.586552,25.8793 25.879303,25.8793 14.292755,0 25.879305,-11.5866 25.879305,-25.8793 0,-14.29275 -11.58655,-25.87931 -25.879305,-25.87931 z"
       id="rect2997"
       style="fill:#ff0000;stroke:none" />
  </g>
</svg>
