<?xml version="1.0" encoding="UTF-8" standalone="no"?>
<!-- Created with Inkscape (http://www.inkscape.org/) -->

<svg
   xmlns:dc="http://purl.org/dc/elements/1.1/"
   xmlns:cc="http://creativecommons.org/ns#"
   xmlns:rdf="http://www.w3.org/1999/02/22-rdf-syntax-ns#"
   xmlns:svg="http://www.w3.org/2000/svg"
   xmlns="http://www.w3.org/2000/svg"
   xmlns:sodipodi="http://sodipodi.sourceforge.net/DTD/sodipodi-0.dtd"
   xmlns:inkscape="http://www.inkscape.org/namespaces/inkscape"
   width="1280"
   height="1080"
   id="svg3000"
   version="1.1"
   inkscape:version="0.48.4 r9939"
   sodipodi:docname="splash_ready.svg">
  <defs
     id="defs3002" />
  <sodipodi:namedview
     id="base"
     pagecolor="#ffffff"
     bordercolor="#666666"
     borderopacity="1.0"
     inkscape:pageopacity="0.0"
     inkscape:pageshadow="2"
     inkscape:zoom="0.7"
     inkscape:cx="660.71429"
     inkscape:cy="520"
     inkscape:document-units="px"
     inkscape:current-layer="layer1"
     showgrid="false"
     showguides="true"
     inkscape:guide-bbox="true"
     inkscape:window-width="1858"
     inkscape:window-height="1178"
     inkscape:window-x="1334"
     inkscape:window-y="229"
     inkscape:window-maximized="1">
    <sodipodi:guide
       orientation="1,0"
       position="138.57143,601.42857"
       id="guide3047" />
    <sodipodi:guide
       orientation="0,1"
       position="-315.71429,958.57143"
       id="guide3049" />
    <sodipodi:guide
       orientation="1,0"
       position="458.57143,831.42857"
       id="guide3051" />
    <sodipodi:guide
       orientation="0,1"
       position="-322.85714,737.14286"
       id="guide3053" />
    <sodipodi:guide
       orientation="1,0"
       position="608.57143,435.71429"
       id="guide3055" />
    <sodipodi:guide
       orientation="1,0"
       position="1111.4286,378.57143"
       id="guide3057" />
    <sodipodi:guide
       orientation="0,1"
       position="31.428571,537.14286"
       id="guide3059" />
  </sodipodi:namedview>
  <metadata
     id="metadata3005">
    <rdf:RDF>
      <cc:Work
         rdf:about="">
        <dc:format>image/svg+xml</dc:format>
        <dc:type
           rdf:resource="http://purl.org/dc/dcmitype/StillImage" />
        <dc:title></dc:title>
      </cc:Work>
    </rdf:RDF>
  </metadata>
  <g
     inkscape:label="Layer 1"
     inkscape:groupmode="layer"
     id="layer1"
     transform="translate(0,27.637817)">
    <path
       style="fill:#00ff00;stroke:none"
       d="m 307,94.203701 c -82.84271,0 -150,40.294369 -150,89.999999 0,49.70563 67.15729,90 150,90 4.7215,0 9.38993,-0.15019 14,-0.40625 l 1.53125,4.0625 14.34375,38.28125 -106.875,0 0,-29.9375 -60,0 0,29.9375 -30.0625,0 0,200.09375 320.12497,0 0,-200.09375 -109.96872,0 24.375,-29.625 L 401,254.29745 c 34.13528,-16.49691 55.99997,-41.74769 55.99997,-70.09375 0,-49.70563 -67.15726,-89.999999 -149.99997,-89.999999 z M 284.875,137.9537 c 13.87581,0 25.125,11.24919 25.125,25.125 0,-13.87581 11.24919,-25.125 25.125,-25.125 13.87581,0 25.125,11.24919 25.125,25.125 0,45.22388 -50.00573,75.3012 -50.25,75.375 -0.24427,-0.0738 -50.25,-30.15112 -50.25,-75.375 0,-13.87581 11.24919,-25.125 25.125,-25.125 z m 12.0625,198.25 c 0.68617,-0.0174 1.37214,0 2.0625,0 44.18278,0 80,35.81722 80,80 0,44.18278 -35.81722,80 -80,80 -44.18278,0 -80,-35.81722 -80,-80 0,-43.49242 34.70901,-78.9048 77.9375,-80 z m 2.0625,20 c -33.13708,0 -60,26.86292 -60,60 0,33.13708 26.86292,60 60,60 33.13708,0 60,-26.86292 60,-60 0,-33.13708 -26.86292,-60 -60,-60 z"
       id="rect2997"
       inkscape:connector-curvature="0" />
    <text
       xml:space="preserve"
       style="font-size:117.44129943999999000px;font-style:normal;font-variant:normal;font-weight:bold;font-stretch:normal;line-height:125%;letter-spacing:0px;word-spacing:0px;fill:#00ff00;fill-opacity:1;stroke:none;font-family:Minion Pro Cond;-inkscape-font-specification:Minion Pro Cond Bold"
       x="606.02173"
       y="394.80905"
       id="text3048"
       sodipodi:linespacing="125%"><tspan
         sodipodi:role="line"
         id="tspan3050"
         x="606.02173"
         y="394.80905"
         style="font-size:117.44129943999999000px;font-style:normal;font-variant:normal;font-weight:normal;font-stretch:normal;text-align:start;line-height:125%;writing-mode:lr-tb;text-anchor:start;font-family:Cooper Black;-inkscape-font-specification:'Cooper Black,';fill:#00ff00">SocSnap</tspan></text>
    <text
       xml:space="preserve"
       style="font-size:66.18637085px;font-style:normal;font-weight:normal;line-height:125%;letter-spacing:0px;word-spacing:0px;fill:#000000;fill-opacity:1;stroke:none;font-family:Sans"
       x="608.57141"
       y="561.60211"
       id="text3071"
       sodipodi:linespacing="125%"><tspan
         sodipodi:role="line"
         id="tspan3073"
         x="608.57141"
         y="561.60211"
         style="font-size:66.18637085px;font-style:normal;font-variant:normal;font-weight:normal;font-stretch:normal;text-align:start;line-height:125%;writing-mode:lr-tb;text-anchor:start;font-family:Cooper Black;-inkscape-font-specification:'Cooper Black,'">Get Ready!</tspan><tspan
         sodipodi:role="line"
         x="608.57141"
         y="644.33508"
         id="tspan3075"
         style="font-size:66.18637085px;font-style:normal;font-variant:normal;font-weight:normal;font-stretch:normal;text-align:start;line-height:125%;writing-mode:lr-tb;text-anchor:start;font-family:Cooper Black;-inkscape-font-specification:'Cooper Black,'">About to Snap!</tspan></text>
  </g>
</svg>
